<?xml version="1.0" encoding="UTF-8"?>
<svg xmlns="http://www.w3.org/2000/svg" width="167" height="169" viewBox="0 0 167 169" role="img" aria-label="Vygo">

<path data-layer="dark-bg" d="M 28.870 4.565 C 18.615 7.723, 8.872 17.184, 5.254 27.500 C 3.666 32.026, 3.500 37.571, 3.500 86 L 3.500 139.500 6.180 145.218 C 9.651 152.623, 16.913 160.327, 23.375 163.459 C 26.194 164.825, 31.721 166.434, 35.659 167.034 C 40.317 167.745, 59.179 168.010, 89.659 167.796 C 135.846 167.470, 136.580 167.434, 142.247 165.162 C 149.237 162.360, 157.647 154.903, 161.220 148.337 C 162.669 145.674, 164.363 140.571, 164.984 136.998 C 165.753 132.572, 166.003 114.877, 165.769 81.500 C 165.385 26.700, 165.416 26.961, 158.238 17.500 C 156.152 14.750, 152.276 11.042, 149.624 9.259 C 140.369 3.039, 139.876 2.993, 84.068 3.070 C 43.276 3.126, 32.605 3.415, 28.870 4.565 M 59.250 37.361 C 49.763 39.005, 42 40.626, 42 40.964 C 42 41.303, 49.595 41.699, 58.878 41.845 L 75.757 42.110 76.443 38.453 C 76.820 36.441, 76.987 34.700, 76.814 34.584 C 76.642 34.468, 68.737 35.717, 59.250 37.361 M 81.640 50.750 C 79.075 76.824, 78.007 90.041, 78.003 95.750 C 78 100.633, 78.168 101, 80.412 101 C 82.466 101, 82.930 100.376, 83.534 96.802 C 84.341 92.023, 88.664 87, 91.969 87 C 95.089 87, 98.775 91.221, 99.512 95.638 C 99.866 97.762, 100.332 100.063, 100.547 100.750 C 100.841 101.694, 105.695 102, 120.352 102 C 139.640 102, 139.771 101.985, 140.371 99.750 C 141.569 95.291, 139.954 75.613, 137.786 68.257 C 136.613 64.274, 135.479 61.188, 135.267 61.400 C 135.055 61.612, 135.565 64.402, 136.400 67.600 C 137.235 70.798, 137.824 73.487, 137.709 73.574 C 137.276 73.904, 113.495 70.926, 110.624 70.182 C 107.817 69.455, 107.514 68.894, 105.918 61.452 C 104.979 57.079, 104.340 53.361, 104.498 53.191 C 104.656 53.021, 111.168 53.849, 118.970 55.030 C 126.771 56.212, 133.420 56.914, 133.744 56.589 C 134.068 56.265, 133.151 54.763, 131.707 53.250 C 130.262 51.738, 127.884 49.021, 126.421 47.214 C 124.958 45.407, 122.365 43.206, 120.659 42.324 C 117.440 40.659, 108.934 38.415, 100.801 37.084 L 96.103 36.315 98.051 38.792 C 101.320 42.948, 100.228 43.439, 96.071 39.683 C 92.864 36.786, 86.961 34.034, 83.893 34.006 C 83.560 34.003, 82.546 41.537, 81.640 50.750 M 63.058 51.112 C 55.260 52.026, 53.373 52.924, 54.281 55.291 C 55.262 57.847, 66.373 58.949, 71.501 57 C 73.599 56.202, 74.069 55.443, 73.816 53.258 C 73.638 51.713, 72.845 50.457, 72 50.378 C 71.175 50.302, 67.151 50.632, 63.058 51.112 M 36.750 55.310 C 31.937 55.856, 28 56.699, 28 57.183 C 28 57.666, 33.507 57.935, 40.238 57.781 C 50.967 57.535, 52.517 57.284, 52.811 55.750 C 53.087 54.310, 52.470 54.028, 49.323 54.158 C 47.220 54.245, 41.563 54.763, 36.750 55.310 M 138.643 64.750 C 139.018 66.263, 139.663 68.625, 140.076 70 C 140.806 72.427, 140.830 72.413, 140.900 69.500 C 140.994 65.620, 140.011 62, 138.864 62 C 138.368 62, 138.268 63.237, 138.643 64.750 M 54.271 66.946 C 47.544 67.870, 41.732 68.935, 41.354 69.313 C 39.651 71.016, 43.190 71.500, 57.331 71.500 L 72.500 71.500 72.813 68.250 C 73.112 65.152, 72.972 65.006, 69.813 65.134 C 67.991 65.207, 60.997 66.023, 54.271 66.946 M 53 80.983 C 50.525 81.394, 41.847 82.301, 33.715 82.997 C 25.584 83.694, 19.059 84.379, 19.215 84.520 C 19.372 84.660, 30.450 85.338, 43.833 86.027 C 67.988 87.269, 68.182 87.263, 70.251 85.193 C 71.991 83.453, 72.122 82.852, 71.045 81.555 C 70.112 80.430, 68.060 80.033, 63.628 80.118 C 60.257 80.182, 55.475 80.572, 53 80.983 M 89.068 93.874 C 87.564 96.682, 87.741 101.269, 89.441 103.559 C 90.593 105.110, 91.246 105.278, 92.691 104.396 C 95.307 102.800, 96.577 98.546, 95.423 95.250 C 94.223 91.823, 90.587 91.035, 89.068 93.874 M 54.500 95.715 C 48.450 96.532, 42.825 97.456, 42 97.769 C 40.262 98.428, 50.617 99.625, 63.250 100.226 L 72 100.641 72 97.321 C 72 94.217, 71.787 94.008, 68.750 94.115 C 66.963 94.178, 60.550 94.898, 54.500 95.715 M 83.500 108.033 C 59.401 109.806, 37.576 116.219, 28.524 124.188 C 24.773 127.490, 24 128.770, 24 131.684 C 24 138.899, 33.911 144.126, 48.305 144.503 L 56.203 144.709 53.236 142.388 C 45.727 136.511, 47.084 129.487, 56.962 123.103 C 64.657 118.129, 77.658 113.369, 90.500 110.823 C 106.209 107.709, 107.572 107.197, 100 107.250 C 96.425 107.276, 89 107.628, 83.500 108.033 M 115.198 110.570 C 101.810 112.521, 86.059 116.501, 77.304 120.146 C 68.983 123.610, 61 130.272, 61 133.752 C 61 136.492, 65.225 141.452, 68.730 142.828 C 71.332 143.848, 103.355 145.016, 102.390 144.054 C 102.143 143.809, 101.393 143.527, 100.721 143.426 C 97.963 143.014, 92.040 140.040, 90.088 138.088 C 88.932 136.932, 88 134.707, 88 133.104 C 88 129.432, 93.006 124.862, 100.849 121.374 C 108.840 117.820, 126.356 113.498, 141 111.467 C 147.875 110.513, 153.687 109.568, 153.917 109.366 C 155.020 108.396, 123.366 109.380, 115.198 110.570" stroke="none" fill="#02121f" fill-rule="evenodd"/>
<path data-layer="cyan" d="M 59.250 37.361 C 49.763 39.005, 42 40.626, 42 40.964 C 42 41.303, 49.595 41.699, 58.878 41.845 L 75.757 42.110 76.443 38.453 C 76.820 36.441, 76.987 34.700, 76.814 34.584 C 76.642 34.468, 68.737 35.717, 59.250 37.361 M 63.058 51.112 C 55.260 52.026, 53.373 52.924, 54.281 55.291 C 55.262 57.847, 66.373 58.949, 71.501 57 C 73.599 56.202, 74.069 55.443, 73.816 53.258 C 73.638 51.713, 72.845 50.457, 72 50.378 C 71.175 50.302, 67.151 50.632, 63.058 51.112 M 36.750 55.310 C 31.937 55.856, 28 56.699, 28 57.183 C 28 57.666, 33.507 57.935, 40.238 57.781 C 50.967 57.535, 52.517 57.284, 52.811 55.750 C 53.087 54.310, 52.470 54.028, 49.323 54.158 C 47.220 54.245, 41.563 54.763, 36.750 55.310 M 54.271 66.946 C 47.544 67.870, 41.732 68.935, 41.354 69.313 C 39.651 71.016, 43.190 71.500, 57.331 71.500 L 72.500 71.500 72.813 68.250 C 73.112 65.152, 72.972 65.006, 69.813 65.134 C 67.991 65.207, 60.997 66.023, 54.271 66.946 M 53 80.983 C 50.525 81.394, 41.847 82.301, 33.715 82.997 C 25.584 83.694, 19.059 84.379, 19.215 84.520 C 19.372 84.660, 30.450 85.338, 43.833 86.027 C 67.988 87.269, 68.182 87.263, 70.251 85.193 C 71.991 83.453, 72.122 82.852, 71.045 81.555 C 70.112 80.430, 68.060 80.033, 63.628 80.118 C 60.257 80.182, 55.475 80.572, 53 80.983 M 54.500 95.715 C 48.450 96.532, 42.825 97.456, 42 97.769 C 40.262 98.428, 50.617 99.625, 63.250 100.226 L 72 100.641 72 97.321 C 72 94.217, 71.787 94.008, 68.750 94.115 C 66.963 94.178, 60.550 94.898, 54.500 95.715 M 83.500 108.033 C 59.401 109.806, 37.576 116.219, 28.524 124.188 C 24.773 127.490, 24 128.770, 24 131.684 C 24 138.899, 33.911 144.126, 48.305 144.503 L 56.203 144.709 53.236 142.388 C 45.727 136.511, 47.084 129.487, 56.962 123.103 C 64.657 118.129, 77.658 113.369, 90.500 110.823 C 106.209 107.709, 107.572 107.197, 100 107.250 C 96.425 107.276, 89 107.628, 83.500 108.033 M 100.500 144 C 100.160 144.550, 100.610 145, 101.500 145 C 102.390 145, 102.840 144.550, 102.500 144 C 102.160 143.450, 101.710 143, 101.500 143 C 101.290 143, 100.840 143.450, 100.500 144" stroke="none" fill="#12c6df" fill-rule="evenodd"/>
<path data-layer="white" d="M 81.640 50.750 C 79.075 76.824, 78.007 90.041, 78.003 95.750 C 78 100.633, 78.168 101, 80.412 101 C 82.466 101, 82.930 100.376, 83.534 96.802 C 84.341 92.023, 88.664 87, 91.969 87 C 95.089 87, 98.775 91.221, 99.512 95.638 C 99.866 97.762, 100.332 100.063, 100.547 100.750 C 100.841 101.694, 105.695 102, 120.352 102 C 139.640 102, 139.771 101.985, 140.371 99.750 C 141.569 95.291, 139.954 75.613, 137.786 68.257 C 136.613 64.274, 135.479 61.188, 135.267 61.400 C 135.055 61.612, 135.565 64.402, 136.400 67.600 C 137.235 70.798, 137.824 73.487, 137.709 73.574 C 137.276 73.904, 113.495 70.926, 110.624 70.182 C 107.817 69.455, 107.514 68.894, 105.918 61.452 C 104.979 57.079, 104.340 53.361, 104.498 53.191 C 104.656 53.021, 111.168 53.849, 118.970 55.030 C 126.771 56.212, 133.420 56.914, 133.744 56.589 C 134.068 56.265, 133.151 54.763, 131.707 53.250 C 130.262 51.738, 127.884 49.021, 126.421 47.214 C 124.958 45.407, 122.365 43.206, 120.659 42.324 C 117.440 40.659, 108.934 38.415, 100.801 37.084 L 96.103 36.315 98.051 38.792 C 101.320 42.948, 100.228 43.439, 96.071 39.683 C 92.864 36.786, 86.961 34.034, 83.893 34.006 C 83.560 34.003, 82.546 41.537, 81.640 50.750 M 91 60.481 C 91 66.739, 91.095 66.983, 93.750 67.564 C 95.263 67.895, 97.805 68.578, 99.399 69.083 C 103.599 70.411, 104.092 70.253, 103.558 67.750 C 103.295 66.513, 102.579 62.913, 101.968 59.750 L 100.858 54 95.929 54 L 91 54 91 60.481 M 138.643 64.750 C 139.018 66.263, 139.663 68.625, 140.076 70 C 140.806 72.427, 140.830 72.413, 140.900 69.500 C 140.994 65.620, 140.011 62, 138.864 62 C 138.368 62, 138.268 63.237, 138.643 64.750 M 116.397 84.441 C 117.592 89.590, 117.464 89.525, 128.176 90.459 C 135.408 91.089, 134.951 91.401, 136.398 84.862 C 136.944 82.393, 136.710 82.188, 132.741 81.654 C 130.408 81.340, 125.535 80.795, 121.910 80.442 L 115.321 79.801 116.397 84.441 M 108.177 90.115 C 108.466 93.143, 108.852 93.534, 111.837 93.820 C 114.577 94.082, 115.113 93.824, 114.834 92.374 C 114.646 91.403, 112.999 89.736, 111.173 88.669 L 107.853 86.730 108.177 90.115 M 136.954 92.086 C 135.663 94.498, 136.250 95.502, 138.457 94.655 C 140.124 94.015, 140.623 90, 139.035 90 C 138.505 90, 137.568 90.939, 136.954 92.086 M 89.068 93.874 C 87.564 96.682, 87.741 101.269, 89.441 103.559 C 90.593 105.110, 91.246 105.278, 92.691 104.396 C 95.307 102.800, 96.577 98.546, 95.423 95.250 C 94.223 91.823, 90.587 91.035, 89.068 93.874 M 118.249 93.250 C 118.687 94.569, 130.380 96.452, 132.672 95.573 C 133.402 95.292, 134 94.374, 134 93.531 C 134 92.283, 132.509 92, 125.917 92 C 119.895 92, 117.939 92.319, 118.249 93.250 M 115.198 110.570 C 101.810 112.521, 86.059 116.501, 77.304 120.146 C 69.047 123.583, 61 130.270, 61 133.694 C 61 134.814, 61.940 136.925, 63.088 138.385 C 66.993 143.349, 69.641 144.003, 85.700 143.969 L 100.500 143.937 95.502 141.490 C 89.724 138.661, 88 136.690, 88 132.912 C 88 129.447, 93.203 124.774, 100.849 121.374 C 108.840 117.820, 126.356 113.498, 141 111.467 C 147.875 110.513, 153.687 109.568, 153.917 109.366 C 155.020 108.396, 123.366 109.380, 115.198 110.570" stroke="none" fill="#ffffff" fill-rule="evenodd"/>
<path data-layer="dark-detail" d="M 91 60.481 C 91 66.739, 91.095 66.983, 93.750 67.564 C 95.263 67.895, 97.805 68.578, 99.399 69.083 C 103.599 70.411, 104.092 70.253, 103.558 67.750 C 103.295 66.513, 102.579 62.913, 101.968 59.750 L 100.858 54 95.929 54 L 91 54 91 60.481 M 116.397 84.441 C 117.592 89.590, 117.464 89.525, 128.176 90.459 C 135.408 91.089, 134.951 91.401, 136.398 84.862 C 136.944 82.393, 136.710 82.188, 132.741 81.654 C 130.408 81.340, 125.535 80.795, 121.910 80.442 L 115.321 79.801 116.397 84.441 M 108.177 90.115 C 108.466 93.143, 108.852 93.534, 111.837 93.820 C 114.577 94.082, 115.113 93.824, 114.834 92.374 C 114.646 91.403, 112.999 89.736, 111.173 88.669 L 107.853 86.730 108.177 90.115 M 136.954 92.086 C 135.663 94.498, 136.250 95.502, 138.457 94.655 C 140.124 94.015, 140.623 90, 139.035 90 C 138.505 90, 137.568 90.939, 136.954 92.086 M 118.249 93.250 C 118.687 94.569, 130.380 96.452, 132.672 95.573 C 133.402 95.292, 134 94.374, 134 93.531 C 134 92.283, 132.509 92, 125.917 92 C 119.895 92, 117.939 92.319, 118.249 93.250" stroke="none" fill="#02121f" fill-rule="evenodd"/>
</svg>
