<svg xmlns="http://www.w3.org/2000/svg" viewBox="0 0 72 72" role="img" aria-label="Vyko">
  <rect width="72" height="72" rx="16" fill="#020617"/>
  <path d="M10 50c13-3 17-16 27-20 9-4 17-1 25-8" fill="none" stroke="#12c6df" stroke-width="7" stroke-linecap="round"/>
  <rect x="13" y="31" width="33" height="15" rx="4" fill="#12c6df"/>
  <path d="M46 34h9l7 8v4H46z" fill="#7dd3fc"/>
  <path d="M18 37h20" stroke="#ffffff" stroke-width="3" stroke-linecap="round"/>
  <circle cx="24" cy="50" r="5.5" fill="#ffffff"/>
  <circle cx="24" cy="50" r="2.4" fill="#020617"/>
  <circle cx="52" cy="50" r="5.5" fill="#ffffff"/>
  <circle cx="52" cy="50" r="2.4" fill="#020617"/>
  <path d="M54 15l2.1 4.5 4.9 1.6-4.9 1.7L54 28l-2.1-4.2-4.9-1.7 4.9-1.6z" fill="#ffffff"/>
</svg>
