<?xml version="1.0" encoding="UTF-8"?>
<svg xmlns="http://www.w3.org/2000/svg" width="688" height="173" viewBox="0 0 688 173" role="img" aria-label="Vygo">

<path data-layer="dark" d="M 144.500 10.114 C 139 11.154, 131.125 12.651, 127 13.440 C 122.875 14.228, 112.525 15.915, 104 17.187 L 88.500 19.500 112.489 20.500 C 133.335 21.369, 136.519 21.713, 136.788 23.124 C 136.959 24.017, 136.289 25.064, 135.299 25.451 C 134.310 25.837, 126.798 26.987, 118.606 28.006 C 108.515 29.262, 103.213 30.358, 102.166 31.406 C 101.315 32.256, 100.945 33.279, 101.344 33.677 C 102.350 34.683, 112.098 35.815, 120.625 35.916 C 129.759 36.024, 134 36.891, 134 38.650 C 134 40.801, 130.648 41.588, 116 42.874 C 89.145 45.233, 89.399 45.200, 91.500 46.025 C 92.600 46.457, 94.321 47.797, 95.324 49.003 C 96.596 50.533, 97.804 51.013, 99.324 50.594 C 102.614 49.685, 129.312 52.145, 130.800 53.493 C 131.866 54.460, 131.860 54.871, 130.768 55.778 C 129.723 56.645, 110.134 58.984, 93.300 60.252 C 92.107 60.342, 90.700 61.362, 90.173 62.519 C 89.290 64.458, 89.538 64.638, 93.358 64.832 C 114.001 65.883, 127.664 67.250, 128.800 68.379 C 129.867 69.440, 129.867 69.853, 128.800 70.684 C 127.251 71.891, 106.841 73.509, 72.250 75.168 C 52.708 76.105, 47 76.675, 47 77.689 C 47 78.664, 49.113 79, 55.250 79.001 C 71.070 79.002, 129.674 82.779, 146 84.850 C 151.314 85.524, 151.493 85.646, 151.287 88.457 C 151.169 90.057, 150.871 91.894, 150.623 92.539 C 150.313 93.348, 143.865 93.941, 129.837 94.450 C 101.242 95.488, 97.504 96.459, 119 97.264 C 128.625 97.625, 141.675 98.796, 148 99.867 C 155.235 101.092, 166.803 102.022, 179.193 102.375 C 190.024 102.683, 204.801 103.658, 212.030 104.541 C 219.259 105.424, 225.922 105.814, 226.837 105.406 C 227.752 104.998, 230.575 104.776, 233.112 104.914 C 237.199 105.135, 237.795 104.898, 238.348 102.832 C 239.732 97.665, 239.293 97, 234.500 97 C 232.025 97, 230 96.801, 230 96.557 C 230 96.314, 231.507 91.476, 233.350 85.807 C 235.192 80.138, 236.975 74.066, 237.312 72.313 C 237.920 69.150, 237.886 69.119, 232.712 68.102 C 229.846 67.538, 222.100 66.153, 215.500 65.024 C 208.900 63.895, 202.195 62.702, 200.600 62.373 C 198.072 61.852, 197.793 62.014, 198.424 63.638 C 198.822 64.662, 200.282 71.125, 201.667 78 C 203.052 84.875, 204.594 90.928, 205.093 91.450 C 205.592 91.973, 206 92.705, 206 93.078 C 206 93.683, 195.235 91.798, 190.750 90.408 C 189.326 89.966, 189 90.483, 189.001 93.183 L 189.001 96.500 184.001 96.153 L 179 95.807 179 91.371 C 179 85.941, 177.118 81.293, 173.608 78.056 C 171.226 75.859, 170.199 75.635, 163.479 75.850 C 159.365 75.981, 156 75.803, 156 75.454 C 156 73.817, 162.145 24.634, 163.166 18.104 C 164.230 11.295, 164.175 10.601, 162.470 9.354 C 160.116 7.633, 156.894 7.769, 144.500 10.114 M 177.161 13.463 C 180.319 15.609, 184.999 22.835, 185 25.566 C 185.001 26.080, 190.963 27.817, 198.250 29.426 C 205.538 31.036, 214.537 33.100, 218.250 34.013 C 221.963 34.927, 225 35.385, 225 35.033 C 225 34.680, 223.659 32.278, 222.021 29.694 C 218.478 24.107, 214.789 21.660, 205.871 18.980 C 198.977 16.908, 175.592 11, 174.284 11 C 173.872 11, 175.167 12.109, 177.161 13.463 M 297.600 66 L 320.337 111 334.924 111 L 349.510 111 371.755 66.497 C 383.990 42.020, 394 21.770, 394 21.497 C 394 21.224, 388.880 21, 382.622 21 C 374.678 21, 370.967 21.377, 370.325 22.250 C 369.819 22.938, 361.804 39.137, 352.514 58.250 C 343.224 77.362, 335.369 93, 335.059 93 C 334.748 93, 326.641 76.800, 317.042 57 L 299.589 21 287.225 21 L 274.862 21 297.600 66 M 88.333 29.667 C 88.700 30.033, 89.300 30.033, 89.667 29.667 C 90.033 29.300, 89.733 29, 89 29 C 88.267 29, 87.967 29.300, 88.333 29.667 M 173.883 32.703 C 171.405 33.086, 171.230 33.502, 170.589 40.578 C 170.217 44.687, 170.170 48.466, 170.485 48.976 C 171.271 50.248, 184.803 54.531, 185.580 53.754 C 186.405 52.928, 184.153 36.155, 182.904 33.820 C 181.946 32.031, 179.890 31.777, 173.883 32.703 M 189.253 43.222 C 190.275 49.395, 191.323 54.656, 191.581 54.914 C 192.093 55.426, 225.870 62.571, 232.750 63.622 C 235.717 64.076, 237 63.915, 237 63.091 C 237 62.442, 235.875 57.363, 234.500 51.806 C 233.125 46.249, 232 41.580, 232 41.431 C 232 40.880, 191.475 32, 188.960 32 C 187.556 32, 187.586 33.160, 189.253 43.222 M 75.333 35.667 C 75.700 36.033, 76.300 36.033, 76.667 35.667 C 77.033 35.300, 76.733 35, 76 35 C 75.267 35, 74.967 35.300, 75.333 35.667 M 390 46.917 C 390 47.421, 390.356 47.983, 390.791 48.167 C 392.668 48.957, 397.113 56.008, 396.431 57.111 C 395.977 57.846, 396.115 58.047, 396.787 57.632 C 397.445 57.225, 399.565 59.860, 402.091 64.227 C 404.405 68.227, 410.056 77.814, 414.649 85.530 C 419.242 93.247, 423 100.361, 423 101.339 C 423 104.128, 424.526 102.532, 429.513 94.531 L 434.137 87.112 423.324 66.556 L 412.510 46 401.255 46 C 395.065 46, 390 46.413, 390 46.917 M 460.405 47.155 C 459.962 47.870, 460.130 48.038, 460.845 47.595 C 461.998 46.883, 462.393 46, 461.559 46 C 461.316 46, 460.797 46.520, 460.405 47.155 M 506.859 47.012 C 497.190 48.660, 489.578 54.359, 485.623 62.911 C 483.840 66.767, 483.507 69.336, 483.539 79 C 483.573 89.481, 483.814 90.956, 486.254 95.649 C 487.726 98.481, 490.609 102.181, 492.660 103.871 C 499.589 109.582, 503.076 110.238, 530.066 110.898 L 554.631 111.500 553.788 114.745 C 553.325 116.529, 551.741 118.779, 550.270 119.745 C 547.942 121.272, 544.444 121.541, 523.360 121.814 L 499.127 122.128 495.906 127.314 C 494.135 130.166, 492.056 133.535, 491.287 134.800 L 489.888 137.101 523.194 136.800 C 555.370 136.510, 556.641 136.425, 560.643 134.284 C 566.196 131.314, 571.460 124.960, 573.132 119.208 C 574.170 115.635, 574.500 106.306, 574.500 80.500 L 574.500 46.500 543 46.361 C 525.675 46.284, 509.411 46.577, 506.859 47.012 M 606.200 47.690 C 599.187 49.799, 591.995 56.282, 588.970 63.221 C 587.099 67.513, 586.655 70.369, 586.595 78.500 C 586.504 90.869, 588.439 97.150, 594.155 103.040 C 596.373 105.326, 600.283 108.164, 602.844 109.348 C 607.225 111.373, 609.007 111.500, 633 111.500 C 656.752 111.500, 658.809 111.357, 663.011 109.412 C 668.393 106.921, 673.361 102.173, 676.001 96.997 C 677.060 94.923, 678.409 90.199, 679 86.499 C 680.302 78.349, 678.959 66.800, 676.045 61.088 C 673.363 55.832, 668.422 51.092, 663.011 48.588 C 658.889 46.680, 656.476 46.483, 635 46.298 C 615.943 46.134, 610.498 46.397, 606.200 47.690 M 237.555 55.750 C 238.310 58.913, 238.945 61.837, 238.964 62.250 C 238.984 62.663, 239.450 63, 240 63 C 241.282 63, 241.299 55.916, 240.025 52.565 C 239.488 51.154, 238.404 50, 237.615 50 C 236.376 50, 236.368 50.784, 237.555 55.750 M 63.762 59.707 C 65.006 59.946, 66.806 59.937, 67.762 59.687 C 68.718 59.437, 67.700 59.241, 65.500 59.252 C 63.300 59.263, 62.518 59.468, 63.762 59.707 M 20.333 61.667 C 20.700 62.033, 21.300 62.033, 21.667 61.667 C 22.033 61.300, 21.733 61, 21 61 C 20.267 61, 19.967 61.300, 20.333 61.667 M 512.942 62.948 C 508.257 64.370, 506.275 65.900, 504.630 69.367 C 502.548 73.754, 502.525 83.198, 504.586 87.540 C 507.710 94.123, 509.054 94.464, 533.250 94.820 L 555 95.140 555 78.570 L 555 62 535.250 62.086 C 524.388 62.133, 514.349 62.521, 512.942 62.948 M 612.898 64.287 C 608.219 67.437, 606.552 71.303, 606.552 79 C 606.552 86.697, 608.219 90.563, 612.898 93.713 C 616.100 95.868, 617.254 96, 632.898 95.996 C 647.600 95.993, 649.866 95.769, 652.701 94.040 C 657.409 91.170, 659.431 86.657, 659.441 79 C 659.450 71.302, 657.786 67.441, 653.102 64.287 C 649.899 62.131, 648.747 62, 633 62 C 617.253 62, 616.101 62.131, 612.898 64.287 M 14.333 63.667 C 14.700 64.033, 15.300 64.033, 15.667 63.667 C 16.033 63.300, 15.733 63, 15 63 C 14.267 63, 13.967 63.300, 14.333 63.667 M 189.190 81.750 C 189.452 84.923, 190.038 85.755, 193 87.155 C 194.925 88.065, 197.512 89.108, 198.750 89.472 C 200.536 89.998, 201 89.736, 201 88.202 C 201 85.393, 197.173 80.970, 193.364 79.379 C 191.549 78.620, 189.798 78, 189.472 78 C 189.146 78, 189.019 79.688, 189.190 81.750 M 165.652 84.832 C 163.057 87.700, 162.499 93.131, 164.420 96.845 C 165.317 98.580, 166.697 100, 167.487 100 C 169.735 100, 172.747 96.164, 173.453 92.400 C 174.735 85.564, 169.546 80.530, 165.652 84.832 M 234.773 88.750 C 233.928 89.713, 232.918 91.544, 232.529 92.820 C 231.875 94.961, 232.079 95.115, 235.160 94.820 C 238.230 94.526, 238.525 94.197, 238.810 90.750 C 239.034 88.048, 238.728 87, 237.715 87 C 236.942 87, 235.618 87.787, 234.773 88.750 M 152.500 110.119 C 131.753 111.870, 114.597 115.775, 107.939 120.262 C 106.076 121.518, 103.865 123.772, 103.026 125.273 C 101.657 127.719, 101.658 128.284, 103.033 130.750 C 107.977 139.620, 138.688 149.137, 176.378 153.478 C 184.012 154.357, 190.436 154.897, 190.656 154.678 C 190.875 154.458, 187.555 153.052, 183.277 151.553 C 168.107 146.235, 158 139.120, 158 133.756 C 158 125.257, 174.483 119.987, 207.664 117.878 C 220.380 117.069, 229.705 117.075, 242.656 117.898 C 252.368 118.515, 260.490 118.844, 260.705 118.628 C 261.198 118.135, 241.916 114.552, 227.979 112.546 C 215.840 110.799, 185.864 108.984, 172 109.157 C 166.775 109.222, 158 109.655, 152.500 110.119 M 155 117.721 C 153.625 117.968, 152.072 118.581, 151.550 119.085 C 150.245 120.342, 151.531 120.231, 157.500 118.570 C 162.180 117.268, 160.571 116.721, 155 117.721 M 138.395 123.606 C 135.765 124.879, 132.369 128.720, 133.181 129.502 C 134.642 130.910, 137.209 129.912, 140.156 126.791 C 143.987 122.735, 143.186 121.285, 138.395 123.606 M 415.264 131.718 C 416.784 131.947, 419.034 131.941, 420.264 131.704 C 421.494 131.467, 420.250 131.279, 417.500 131.286 C 414.750 131.294, 413.744 131.488, 415.264 131.718 M 137.497 135.995 C 137.835 136.542, 139.099 137.507, 140.306 138.140 C 142.485 139.283, 142.487 139.276, 140.595 137.146 C 138.686 134.996, 136.341 134.125, 137.497 135.995 M 417.211 154.506 C 417.538 164.128, 419.509 165.960, 419.485 156.620 L 419.470 150.741 421.673 155.620 C 422.886 158.304, 423.905 161.063, 423.939 161.750 C 423.972 162.438, 424.703 163, 425.562 163 C 426.502 163, 428.274 160.514, 430.016 156.750 L 432.908 150.500 432.954 156.750 C 432.989 161.510, 433.344 163, 434.444 163 C 435.604 163, 435.852 161.327, 435.704 154.500 C 435.531 146.490, 435.395 146, 433.342 146 C 431.604 146, 430.692 147.214, 428.837 152 C 427.557 155.300, 426.281 158, 426 158 C 425.719 158, 424.443 155.300, 423.163 152 C 421.419 147.503, 420.346 146, 418.879 146 C 417.067 146, 416.944 146.630, 417.211 154.506 M 444.250 151.040 C 440.951 152.353, 441.507 154.047, 445.141 153.754 C 446.955 153.607, 448.469 154.028, 448.725 154.750 C 449.012 155.563, 448.159 156, 446.283 156 C 443.005 156, 441 157.581, 441 160.165 C 441 162.509, 444.518 164.299, 447.288 163.364 C 448.504 162.953, 450.348 162.742, 451.385 162.894 C 453.077 163.143, 453.220 162.642, 452.777 158.027 C 452.505 155.197, 451.881 152.509, 451.391 152.054 C 449.810 150.583, 446.559 150.122, 444.250 151.040 M 463.139 150.893 C 462.391 151.367, 460.928 151.533, 459.889 151.261 C 458.189 150.816, 458 151.379, 458 156.883 C 458 161.551, 458.342 163, 459.445 163 C 460.459 163, 460.981 161.586, 461.195 158.259 C 461.434 154.552, 461.910 153.440, 463.380 153.161 C 465.831 152.695, 466.966 154.612, 466.985 159.250 C 466.996 161.910, 467.436 163, 468.500 163 C 470.903 163, 470.517 154.517, 468 152 C 465.782 149.782, 465.128 149.633, 463.139 150.893 M 477.250 151.040 C 473.782 152.420, 474.584 153.965, 478.641 153.720 C 480.826 153.588, 482.459 154, 482.724 154.750 C 483.022 155.591, 482.059 156, 479.783 156 C 476.020 156, 474 157.474, 474 160.221 C 474 162.479, 478.232 164.540, 480.686 163.478 C 481.684 163.046, 483.288 162.790, 484.250 162.909 C 485.683 163.086, 486 162.333, 486 158.754 C 486 156.350, 485.438 153.667, 484.750 152.792 C 483.078 150.665, 480.001 149.946, 477.250 151.040 M 493.937 151.338 C 492.108 152.244, 491.422 153.493, 491.185 156.343 C 490.755 161.545, 492.453 163.337, 497.209 162.699 C 499.294 162.419, 501 162.542, 501 162.973 C 501 164.664, 497.971 166.128, 495.105 165.822 C 493.446 165.645, 491.956 165.939, 491.794 166.476 C 491.352 167.941, 496.356 169.378, 499.315 168.636 C 502.583 167.815, 504.127 162.866, 503.297 155.864 C 502.854 152.117, 502.359 151.032, 501.282 151.445 C 500.497 151.746, 499.072 151.574, 498.114 151.061 C 496.975 150.451, 495.531 150.547, 493.937 151.338 M 512.242 151.102 C 511 151.564, 509.480 153.047, 508.865 154.397 C 507.235 157.974, 508.500 161.550, 511.892 162.955 C 514.288 163.948, 515.318 163.888, 517.655 162.622 C 520.677 160.984, 520.459 160.814, 515.093 160.622 C 513.220 160.555, 511.495 159.938, 511.260 159.250 C 510.960 158.370, 512.189 158, 515.417 158 C 519.172 158, 520 157.673, 520 156.191 C 520 154.052, 518.105 151.485, 516 150.771 C 515.175 150.492, 513.484 150.641, 512.242 151.102 M 391.500 152 C 391.840 152.550, 392.343 153, 392.618 153 C 392.893 153, 392.840 152.550, 392.500 152 C 392.160 151.450, 391.657 151, 391.382 151 C 391.107 151, 391.160 151.450, 391.500 152 M 494.390 154.427 C 493.296 157.276, 494.452 160.493, 496.682 160.811 C 499.570 161.222, 501.511 157.823, 500 155 C 498.764 152.691, 495.196 152.327, 494.390 154.427 M 511.709 153.624 C 510.223 155.110, 511.112 156, 514.083 156 C 516.103 156, 517.025 155.569, 516.755 154.750 C 516.288 153.332, 512.783 152.550, 511.709 153.624 M 633 157 C 633 157.733, 633.300 158.033, 633.667 157.667 C 634.033 157.300, 634.033 156.700, 633.667 156.333 C 633.300 155.967, 633 156.267, 633 157 M 444 159.441 C 444 161.974, 446.135 162.310, 448.323 160.121 L 450.444 158 447.222 158 C 445.083 158, 444 158.484, 444 159.441 M 477.446 159.087 C 477.077 159.685, 477.227 160.627, 477.780 161.180 C 478.917 162.317, 483 160.584, 483 158.965 C 483 157.639, 478.277 157.743, 477.446 159.087 M 524.446 161.087 C 523.573 162.499, 525.501 164.427, 526.913 163.554 C 528.499 162.574, 528.243 160, 526.559 160 C 525.766 160, 524.816 160.489, 524.446 161.087 M 655.333 163.667 C 655.700 164.033, 656.300 164.033, 656.667 163.667 C 657.033 163.300, 656.733 163, 656 163 C 655.267 163, 654.967 163.300, 655.333 163.667" stroke="none" fill="#02121f" fill-rule="evenodd"/>
<path data-layer="cyan" d="M 68.795 30.403 C 55.334 31.083, 46.661 31.932, 45.958 32.637 C 45.335 33.263, 45.202 34.005, 45.663 34.287 C 46.123 34.569, 61.350 35.038, 79.500 35.330 C 97.650 35.622, 110.165 35.545, 107.311 35.158 C 104.458 34.772, 101.806 34.139, 101.419 33.752 C 101.032 33.365, 101.241 32.415, 101.883 31.641 C 102.797 30.539, 102.702 30.100, 101.444 29.617 C 99.570 28.898, 97.640 28.944, 68.795 30.403 M 71.250 45.744 C 63.838 46.047, 63 46.280, 63 48.040 C 63 49.905, 63.777 50, 79.083 50 C 91.503 50, 95.073 49.715, 94.754 48.750 C 94.024 46.537, 89.633 45.024, 84.500 45.218 C 81.750 45.322, 75.787 45.559, 71.250 45.744 M 460.741 47.819 C 459.947 48.744, 454.881 57.150, 449.484 66.500 C 429.989 100.270, 426.074 106.691, 417.772 118.500 L 409.337 130.500 418.365 130.790 C 423.664 130.960, 428.557 130.598, 430.214 129.911 C 433.745 128.449, 436.801 124.522, 445.708 110 C 455.102 94.685, 482.003 49.156, 482.643 47.489 C 483.042 46.448, 480.934 46.166, 472.667 46.154 C 464.075 46.142, 461.924 46.442, 460.741 47.819 M 101.750 50.706 C 102.987 50.944, 105.013 50.944, 106.250 50.706 C 107.487 50.467, 106.475 50.272, 104 50.272 C 101.525 50.272, 100.513 50.467, 101.750 50.706 M 396.656 57.500 C 414.278 89.876, 421.991 103.497, 422.868 103.789 C 425.036 104.512, 421.959 97.740, 414.237 84.791 C 409.877 77.481, 404.192 67.900, 401.603 63.500 C 395.384 52.931, 391.810 48.596, 396.656 57.500 M 51.500 60.027 C 41.600 60.408, 27.650 61.102, 20.500 61.569 C 9.353 62.297, 8.213 62.518, 12.500 63.121 C 15.250 63.507, 31.010 64.158, 47.523 64.568 C 75.442 65.260, 77.668 65.189, 79.307 63.550 C 82.011 60.846, 79.785 58.963, 74.128 59.167 C 71.582 59.259, 61.400 59.646, 51.500 60.027 M 89.500 64 C 89.840 64.550, 90.343 65, 90.618 65 C 90.893 65, 90.840 64.550, 90.500 64 C 90.160 63.450, 89.657 63, 89.382 63 C 89.107 63, 89.160 63.450, 89.500 64 M 91.500 96.702 C 80.653 97.445, 63.310 100.228, 52.485 102.962 C 34.053 107.617, 23.016 114.595, 23.004 121.602 C 23.002 122.758, 24.019 125.233, 25.264 127.102 C 28.274 131.621, 42.297 138.630, 55.500 142.216 C 66.521 145.209, 89.857 149.517, 100 150.430 L 106.500 151.015 99.689 148.590 C 82.607 142.507, 70.500 135.037, 68.020 129.049 C 65.587 123.174, 69.991 117.509, 80.501 112.995 C 92.667 107.770, 117.928 103.440, 143 102.281 L 157.500 101.611 147.500 99.880 C 135.964 97.882, 102.218 95.967, 91.500 96.702 M 545.228 146.240 C 542.885 147.359, 541.326 151.101, 542.447 152.915 C 542.797 153.480, 545.089 154.831, 547.541 155.915 C 549.994 157, 552 158.354, 552 158.925 C 552 160.479, 547.032 161.432, 545.727 160.127 C 544.168 158.568, 542 158.714, 542 160.379 C 542 162.353, 547.206 164.237, 550.426 163.429 C 556.212 161.977, 555.959 154.809, 550.077 153.517 C 546.067 152.636, 544.509 150.653, 546.517 148.986 C 547.690 148.012, 548.642 147.972, 550.494 148.815 C 553.123 150.013, 554.767 148.857, 552.739 147.236 C 550.589 145.516, 547.580 145.117, 545.228 146.240 M 647 148.243 C 647 151.474, 646.839 151.630, 643.961 151.208 C 637.921 150.321, 634.583 157.583, 639 162 C 641.193 164.193, 642.726 164.459, 644.974 163.037 C 645.944 162.424, 646.698 162.511, 647.182 163.294 C 647.710 164.149, 648.222 164.178, 649.001 163.399 C 650.548 161.852, 649.883 145.788, 648.250 145.247 C 647.413 144.970, 647 145.961, 647 148.243 M 326 154.500 C 326 161.389, 326.284 163, 327.500 163 C 328.649 163, 329.022 161.654, 329.092 157.250 L 329.184 151.500 331.746 157.250 C 333.156 160.412, 334.857 163, 335.527 163 C 336.197 163, 337.898 160.412, 339.307 157.250 L 341.868 151.500 341.934 157.250 C 341.985 161.665, 342.348 163, 343.500 163 C 344.716 163, 345 161.389, 345 154.500 C 345 146.603, 344.855 146, 342.954 146 C 341.413 146, 340.233 147.512, 338.172 152.126 L 335.436 158.253 332.793 152.126 C 330.772 147.442, 329.661 146, 328.075 146 C 326.138 146, 326 146.564, 326 154.500 M 353.235 151.046 C 350.231 152.240, 348.538 156.692, 349.928 159.742 C 350.872 161.813, 354.560 164, 357.111 164 C 358.835 164, 363 159.160, 363 157.156 C 363 154.726, 360.130 151.336, 357.500 150.660 C 356.400 150.377, 354.481 150.551, 353.235 151.046 M 385.280 151.020 C 382.750 152.038, 381.484 155.807, 382.420 159.535 C 383.221 162.731, 387.490 164.553, 390.722 163.081 C 394.123 161.531, 393.476 160.257, 389.354 160.386 C 387.246 160.452, 385.523 159.973, 385.270 159.250 C 384.962 158.368, 386.184 158, 389.417 158 C 393.276 158, 394 157.695, 394 156.073 C 394 155.012, 392.814 153.212, 391.365 152.073 C 388.437 149.769, 388.403 149.763, 385.280 151.020 M 579.242 151.034 C 575.988 152.342, 574.378 156.338, 575.825 159.515 C 577.392 162.956, 580.815 164.401, 584.278 163.084 C 588.183 161.600, 587.758 159.767, 583.686 160.531 C 581.290 160.981, 580.003 160.708, 579.039 159.547 C 577.987 158.279, 577.953 157.398, 578.880 155.364 C 579.916 153.091, 580.463 152.864, 583.527 153.439 C 587.581 154.200, 588.134 152.838, 584.453 151.161 C 583.052 150.522, 581.815 150.029, 581.703 150.063 C 581.591 150.098, 580.484 150.535, 579.242 151.034 M 594.242 151.034 C 593 151.533, 591.465 153.080, 590.831 154.471 C 588.452 159.694, 593.955 165.108, 599.500 163 C 603.231 161.581, 602.640 159.789, 598.686 160.531 C 596.290 160.981, 595.003 160.708, 594.039 159.547 C 592.985 158.276, 592.952 157.400, 593.886 155.352 C 594.877 153.175, 595.531 152.856, 597.994 153.349 C 601.752 154.100, 602.699 152.640, 599.422 151.146 C 598.038 150.516, 596.815 150.029, 596.703 150.063 C 596.591 150.098, 595.484 150.535, 594.242 151.034 M 609.205 151.120 C 606.412 152.153, 604.557 156.099, 605.360 159.300 C 606.189 162.601, 611.174 164.697, 614.545 163.161 C 618.190 161.501, 617.632 159.791, 613.686 160.531 C 611.308 160.977, 610.002 160.708, 609.063 159.576 C 607.901 158.176, 608.333 158, 612.945 158 C 617.865 158, 618.099 157.883, 617.445 155.750 C 616.062 151.238, 613.213 149.637, 609.205 151.120 M 625.242 151.102 C 622.415 152.153, 620.553 156.085, 621.360 159.300 C 622.207 162.673, 627.170 164.699, 630.674 163.103 C 633.931 161.619, 632.892 160.500, 628.258 160.500 C 626.294 160.500, 624.495 159.938, 624.260 159.250 C 623.960 158.370, 625.189 158, 628.417 158 C 632.576 158, 633 157.780, 633 155.622 C 633 151.899, 629.143 149.652, 625.242 151.102 M 366 151.411 C 366 151.637, 366.962 154.337, 368.139 157.411 C 369.676 161.428, 370.801 163, 372.139 163 C 373.162 163, 374 162.831, 374 162.624 C 374 162.418, 375.119 159.718, 376.487 156.624 C 378.534 151.997, 378.704 151, 377.446 151 C 376.603 151, 375.095 152.905, 374.082 155.250 L 372.245 159.500 370.514 155.250 C 369.562 152.912, 368.157 151, 367.391 151 C 366.626 151, 366 151.185, 366 151.411 M 559 155.929 C 559 161.652, 561.066 164.546, 564.399 163.490 C 565.555 163.124, 567.513 162.859, 568.750 162.901 C 570.841 162.972, 571 162.555, 571 156.989 C 571 152.332, 570.666 151, 569.500 151 C 568.425 151, 568 152.098, 568 154.878 C 568 159.041, 566.008 161.601, 563.513 160.643 C 562.470 160.243, 562 158.654, 562 155.531 C 562 152.170, 561.613 151, 560.500 151 C 559.370 151, 559 152.214, 559 155.929 M 353 155 C 350.729 159.243, 355.980 163.139, 359.025 159.470 C 359.995 158.301, 360.029 157.359, 359.168 155.470 C 357.803 152.474, 354.487 152.221, 353 155 M 385.709 153.624 C 384.223 155.110, 385.112 156, 388.083 156 C 390.103 156, 391.025 155.569, 390.755 154.750 C 390.288 153.332, 386.783 152.550, 385.709 153.624 M 609.667 153.667 C 608.307 155.026, 609.072 156, 611.500 156 C 613.056 156, 614 155.433, 614 154.500 C 614 153, 610.925 152.409, 609.667 153.667 M 624.659 154.447 C 624.200 155.642, 624.767 156, 627.115 156 C 629.109 156, 630.024 155.567, 629.755 154.750 C 629.139 152.880, 625.346 152.655, 624.659 154.447 M 641.046 154.444 C 640.293 155.352, 640.040 157.022, 640.424 158.552 C 640.903 160.461, 641.619 161.048, 643.183 160.815 C 646.145 160.373, 647.802 157.496, 646.388 155.250 C 644.917 152.914, 642.605 152.566, 641.046 154.444 M 398 161.441 C 398 162.234, 398.359 163.104, 398.798 163.375 C 400.077 164.166, 402.323 162.332, 401.569 161.112 C 400.577 159.506, 398 159.744, 398 161.441 M 654.688 160.646 C 653.383 161.950, 654.006 163, 656.083 163 C 657.247 163, 657.992 162.476, 657.771 161.813 C 657.284 160.351, 655.614 159.719, 654.688 160.646" stroke="none" fill="#12c6df" fill-rule="evenodd"/>
<path data-layer="white" d="M 110.333 20.667 C 110.700 21.033, 111.300 21.033, 111.667 20.667 C 112.033 20.300, 111.733 20, 111 20 C 110.267 20, 109.967 20.300, 110.333 20.667 M 280.750 20.740 C 284.188 20.936, 289.813 20.936, 293.250 20.740 C 296.688 20.545, 293.875 20.385, 287 20.385 C 280.125 20.385, 277.313 20.545, 280.750 20.740 M 370.558 20.907 C 370.249 21.405, 370.898 21.578, 371.999 21.290 C 374.334 20.679, 374.629 20, 372.559 20 C 371.766 20, 370.866 20.408, 370.558 20.907 M 383.728 20.722 C 385.503 20.943, 388.653 20.946, 390.728 20.730 C 392.802 20.513, 391.350 20.333, 387.500 20.328 C 383.650 20.324, 381.952 20.501, 383.728 20.722 M 84.750 29.662 C 85.438 29.940, 86.563 29.940, 87.250 29.662 C 87.938 29.385, 87.375 29.158, 86 29.158 C 84.625 29.158, 84.063 29.385, 84.750 29.662 M 63.750 30.662 C 64.438 30.940, 65.563 30.940, 66.250 30.662 C 66.938 30.385, 66.375 30.158, 65 30.158 C 63.625 30.158, 63.063 30.385, 63.750 30.662 M 50.813 35.683 C 51.534 35.972, 52.397 35.936, 52.729 35.604 C 53.061 35.272, 52.471 35.036, 51.417 35.079 C 50.252 35.127, 50.015 35.364, 50.813 35.683 M 57.250 35.689 C 58.212 35.941, 59.788 35.941, 60.750 35.689 C 61.712 35.438, 60.925 35.232, 59 35.232 C 57.075 35.232, 56.288 35.438, 57.250 35.689 M 66.768 35.725 C 68.565 35.947, 71.265 35.943, 72.768 35.715 C 74.271 35.486, 72.800 35.304, 69.500 35.310 C 66.200 35.315, 64.971 35.502, 66.768 35.725 M 108.813 43.683 C 109.534 43.972, 110.397 43.936, 110.729 43.604 C 111.061 43.272, 110.471 43.036, 109.417 43.079 C 108.252 43.127, 108.015 43.364, 108.813 43.683 M 76.813 45.683 C 77.534 45.972, 78.397 45.936, 78.729 45.604 C 79.061 45.272, 78.471 45.036, 77.417 45.079 C 76.252 45.127, 76.015 45.364, 76.813 45.683 M 624.206 45.741 C 627.895 45.932, 634.195 45.934, 638.206 45.743 C 642.218 45.553, 639.200 45.396, 631.500 45.395 C 623.800 45.393, 620.518 45.549, 624.206 45.741 M 92.250 50.689 C 93.213 50.941, 94.787 50.941, 95.750 50.689 C 96.713 50.438, 95.925 50.232, 94 50.232 C 92.075 50.232, 91.287 50.438, 92.250 50.689 M 158 55 C 158 55.733, 158.300 56.033, 158.667 55.667 C 159.033 55.300, 159.033 54.700, 158.667 54.333 C 158.300 53.967, 158 54.267, 158 55 M 57.250 59.689 C 58.212 59.941, 59.788 59.941, 60.750 59.689 C 61.712 59.438, 60.925 59.232, 59 59.232 C 57.075 59.232, 56.288 59.438, 57.250 59.689 M 36.333 60.667 C 36.700 61.033, 37.300 61.033, 37.667 60.667 C 38.033 60.300, 37.733 60, 37 60 C 36.267 60, 35.967 60.300, 36.333 60.667 M 18.333 61.667 C 18.700 62.033, 19.300 62.033, 19.667 61.667 C 20.033 61.300, 19.733 61, 19 61 C 18.267 61, 17.967 61.300, 18.333 61.667 M 512.942 62.948 C 508.257 64.370, 506.275 65.900, 504.630 69.367 C 502.548 73.754, 502.525 83.198, 504.586 87.540 C 507.710 94.123, 509.054 94.464, 533.250 94.820 L 555 95.140 555 78.570 L 555 62 535.250 62.086 C 524.388 62.133, 514.349 62.521, 512.942 62.948 M 612.898 64.287 C 608.219 67.437, 606.552 71.303, 606.552 79 C 606.552 86.697, 608.219 90.563, 612.898 93.713 C 616.100 95.868, 617.254 96, 632.898 95.996 C 647.600 95.993, 649.866 95.769, 652.701 94.040 C 657.409 91.170, 659.431 86.657, 659.441 79 C 659.450 71.302, 657.786 67.441, 653.102 64.287 C 649.899 62.131, 648.747 62, 633 62 C 617.253 62, 616.101 62.131, 612.898 64.287 M 10.750 63.662 C 11.438 63.940, 12.563 63.940, 13.250 63.662 C 13.938 63.385, 13.375 63.158, 12 63.158 C 10.625 63.158, 10.063 63.385, 10.750 63.662 M 36.333 64.667 C 36.700 65.033, 37.300 65.033, 37.667 64.667 C 38.033 64.300, 37.733 64, 37 64 C 36.267 64, 35.967 64.300, 36.333 64.667 M 118.333 66.667 C 118.700 67.033, 119.300 67.033, 119.667 66.667 C 120.033 66.300, 119.733 66, 119 66 C 118.267 66, 117.967 66.300, 118.333 66.667 M 102.333 73.667 C 102.700 74.033, 103.300 74.033, 103.667 73.667 C 104.033 73.300, 103.733 73, 103 73 C 102.267 73, 101.967 73.300, 102.333 73.667 M 679 75 C 679 75.733, 679.300 76.033, 679.667 75.667 C 680.033 75.300, 680.033 74.700, 679.667 74.333 C 679.300 73.967, 679 74.267, 679 75 M 174.500 79 C 174.840 79.550, 175.343 80, 175.618 80 C 175.893 80, 175.840 79.550, 175.500 79 C 175.160 78.450, 174.657 78, 174.382 78 C 174.107 78, 174.160 78.450, 174.500 79 M 106.333 81.667 C 106.700 82.033, 107.300 82.033, 107.667 81.667 C 108.033 81.300, 107.733 81, 107 81 C 106.267 81, 105.967 81.300, 106.333 81.667 M 198.500 83 C 198.840 83.550, 199.343 84, 199.618 84 C 199.893 84, 199.840 83.550, 199.500 83 C 199.160 82.450, 198.657 82, 198.382 82 C 198.107 82, 198.160 82.450, 198.500 83 M 165.652 84.832 C 163.057 87.700, 162.499 93.131, 164.420 96.845 C 165.317 98.580, 166.697 100, 167.487 100 C 169.735 100, 172.747 96.164, 173.453 92.400 C 174.735 85.564, 169.546 80.530, 165.652 84.832 M 189.500 86 C 189.840 86.550, 190.343 87, 190.618 87 C 190.893 87, 190.840 86.550, 190.500 86 C 190.160 85.450, 189.657 85, 189.382 85 C 189.107 85, 189.160 85.450, 189.500 86 M 231.500 92 C 231.840 92.550, 232.343 93, 232.618 93 C 232.893 93, 232.840 92.550, 232.500 92 C 232.160 91.450, 231.657 91, 231.382 91 C 231.107 91, 231.160 91.450, 231.500 92 M 205 93 C 205 93.733, 205.300 94.033, 205.667 93.667 C 206.033 93.300, 206.033 92.700, 205.667 92.333 C 205.300 91.967, 205 92.267, 205 93 M 92.813 96.683 C 93.534 96.972, 94.397 96.936, 94.729 96.604 C 95.061 96.272, 94.471 96.036, 93.417 96.079 C 92.252 96.127, 92.015 96.364, 92.813 96.683 M 81.333 97.667 C 81.700 98.033, 82.300 98.033, 82.667 97.667 C 83.033 97.300, 82.733 97, 82 97 C 81.267 97, 80.967 97.300, 81.333 97.667 M 139.269 102.693 C 140.242 102.947, 141.592 102.930, 142.269 102.656 C 142.946 102.382, 142.150 102.175, 140.500 102.195 C 138.850 102.215, 138.296 102.439, 139.269 102.693 M 179.333 102.667 C 179.700 103.033, 180.300 103.033, 180.667 102.667 C 181.033 102.300, 180.733 102, 180 102 C 179.267 102, 178.967 102.300, 179.333 102.667 M 160.333 109.667 C 160.700 110.033, 161.300 110.033, 161.667 109.667 C 162.033 109.300, 161.733 109, 161 109 C 160.267 109, 159.967 109.300, 160.333 109.667 M 188.750 109.662 C 189.438 109.940, 190.563 109.940, 191.250 109.662 C 191.938 109.385, 191.375 109.158, 190 109.158 C 188.625 109.158, 188.063 109.385, 188.750 109.662 M 155 117.721 C 153.625 117.968, 152.072 118.581, 151.550 119.085 C 150.245 120.342, 151.531 120.231, 157.500 118.570 C 162.180 117.268, 160.571 116.721, 155 117.721 M 214.333 117.667 C 214.700 118.033, 215.300 118.033, 215.667 117.667 C 216.033 117.300, 215.733 117, 215 117 C 214.267 117, 213.967 117.300, 214.333 117.667 M 233.813 117.683 C 234.534 117.972, 235.397 117.936, 235.729 117.604 C 236.061 117.272, 235.471 117.036, 234.417 117.079 C 233.252 117.127, 233.015 117.364, 233.813 117.683 M 138.395 123.606 C 135.765 124.879, 132.369 128.720, 133.181 129.502 C 134.642 130.910, 137.209 129.912, 140.156 126.791 C 143.987 122.735, 143.186 121.285, 138.395 123.606 M 67 126 C 67 126.733, 67.300 127.033, 67.667 126.667 C 68.033 126.300, 68.033 125.700, 67.667 125.333 C 67.300 124.967, 67 125.267, 67 126 M 408.667 129.667 C 407.250 131.083, 408.115 131.994, 410.750 131.864 C 413.130 131.746, 413.195 131.669, 411.235 131.292 C 409.990 131.053, 409.229 130.439, 409.544 129.929 C 410.208 128.855, 409.646 128.687, 408.667 129.667 M 423.269 131.693 C 424.242 131.947, 425.592 131.930, 426.269 131.656 C 426.946 131.382, 426.150 131.175, 424.500 131.195 C 422.850 131.215, 422.296 131.439, 423.269 131.693 M 137.497 135.995 C 137.835 136.542, 139.099 137.507, 140.306 138.140 C 142.485 139.283, 142.487 139.276, 140.595 137.146 C 138.686 134.996, 136.341 134.125, 137.497 135.995 M 500.280 137.736 C 502.909 137.943, 506.959 137.940, 509.280 137.731 C 511.601 137.521, 509.450 137.352, 504.500 137.355 C 499.550 137.358, 497.651 137.530, 500.280 137.736 M 522.250 137.735 C 524.862 137.941, 529.138 137.941, 531.750 137.735 C 534.362 137.529, 532.225 137.360, 527 137.360 C 521.775 137.360, 519.638 137.529, 522.250 137.735 M 98.333 150.667 C 98.700 151.033, 99.300 151.033, 99.667 150.667 C 100.033 150.300, 99.733 150, 99 150 C 98.267 150, 97.967 150.300, 98.333 150.667 M 435.195 152.500 C 435.215 154.150, 435.439 154.704, 435.693 153.731 C 435.947 152.758, 435.930 151.408, 435.656 150.731 C 435.382 150.054, 435.175 150.850, 435.195 152.500 M 641.813 150.683 C 642.534 150.972, 643.397 150.936, 643.729 150.604 C 644.061 150.272, 643.471 150.036, 642.417 150.079 C 641.252 150.127, 641.015 150.364, 641.813 150.683 M 106.333 151.667 C 106.700 152.033, 107.300 152.033, 107.667 151.667 C 108.033 151.300, 107.733 151, 107 151 C 106.267 151, 105.967 151.300, 106.333 151.667 M 419 152 C 419 152.733, 419.300 153.033, 419.667 152.667 C 420.033 152.300, 420.033 151.700, 419.667 151.333 C 419.300 150.967, 419 151.267, 419 152 M 503.252 154.500 C 503.263 156.700, 503.468 157.482, 503.707 156.238 C 503.946 154.994, 503.937 153.194, 503.687 152.238 C 503.437 151.282, 503.241 152.300, 503.252 154.500 M 353 155 C 351.616 157.586, 353.323 161, 356 161 C 358.677 161, 360.384 157.586, 359 155 C 358.411 153.900, 357.061 153, 356 153 C 354.939 153, 353.589 153.900, 353 155 M 385.709 153.624 C 384.223 155.110, 385.112 156, 388.083 156 C 390.103 156, 391.025 155.569, 390.755 154.750 C 390.288 153.332, 386.783 152.550, 385.709 153.624 M 494.390 154.427 C 493.296 157.276, 494.452 160.493, 496.682 160.811 C 499.570 161.222, 501.511 157.823, 500 155 C 498.764 152.691, 495.196 152.327, 494.390 154.427 M 511.709 153.624 C 510.223 155.110, 511.112 156, 514.083 156 C 516.103 156, 517.025 155.569, 516.755 154.750 C 516.288 153.332, 512.783 152.550, 511.709 153.624 M 598.500 154 C 598.840 154.550, 599.343 155, 599.618 155 C 599.893 155, 599.840 154.550, 599.500 154 C 599.160 153.450, 598.657 153, 598.382 153 C 598.107 153, 598.160 153.450, 598.500 154 M 609.667 153.667 C 608.307 155.026, 609.072 156, 611.500 156 C 613.056 156, 614 155.433, 614 154.500 C 614 153, 610.925 152.409, 609.667 153.667 M 625.036 154.457 C 623.927 155.793, 624.185 156, 626.961 156 C 629.081 156, 630.026 155.577, 629.750 154.750 C 629.126 152.873, 626.486 152.709, 625.036 154.457 M 641.046 154.444 C 640.293 155.352, 640.040 157.022, 640.424 158.552 C 640.903 160.461, 641.619 161.048, 643.183 160.815 C 646.145 160.373, 647.802 157.496, 646.388 155.250 C 644.917 152.914, 642.605 152.566, 641.046 154.444 M 184.333 154.667 C 184.700 155.033, 185.300 155.033, 185.667 154.667 C 186.033 154.300, 185.733 154, 185 154 C 184.267 154, 183.967 154.300, 184.333 154.667 M 584.333 154.667 C 584.700 155.033, 585.300 155.033, 585.667 154.667 C 586.033 154.300, 585.733 154, 585 154 C 584.267 154, 583.967 154.300, 584.333 154.667 M 490 157 C 490 157.733, 490.300 158.033, 490.667 157.667 C 491.033 157.300, 491.033 156.700, 490.667 156.333 C 490.300 155.967, 490 156.267, 490 157 M 578 157 C 578 157.733, 578.300 158.033, 578.667 157.667 C 579.033 157.300, 579.033 156.700, 578.667 156.333 C 578.300 155.967, 578 156.267, 578 157 M 593 157 C 593 157.733, 593.300 158.033, 593.667 157.667 C 594.033 157.300, 594.033 156.700, 593.667 156.333 C 593.300 155.967, 593 156.267, 593 157 M 416 159.941 C 416 161.559, 416.356 163.102, 416.791 163.371 C 417.226 163.640, 417.402 162.316, 417.182 160.430 C 416.691 156.227, 416 155.941, 416 159.941 M 444 159.441 C 444 161.974, 446.135 162.310, 448.323 160.121 L 450.444 158 447.222 158 C 445.083 158, 444 158.484, 444 159.441 M 477.446 159.087 C 477.077 159.685, 477.227 160.627, 477.780 161.180 C 478.917 162.317, 483 160.584, 483 158.965 C 483 157.639, 478.277 157.743, 477.446 159.087 M 392.405 162.155 C 391.962 162.870, 392.130 163.038, 392.845 162.595 C 393.998 161.883, 394.393 161, 393.559 161 C 393.316 161, 392.797 161.520, 392.405 162.155 M 499.500 163 C 499.840 163.550, 500.316 164, 500.559 164 C 500.802 164, 501 163.550, 501 163 C 501 162.450, 500.523 162, 499.941 162 C 499.359 162, 499.160 162.450, 499.500 163 M 503 163 C 503 163.733, 503.300 164.033, 503.667 163.667 C 504.033 163.300, 504.033 162.700, 503.667 162.333 C 503.300 161.967, 503 162.267, 503 163 M 567.500 163 C 567.840 163.550, 568.343 164, 568.618 164 C 568.893 164, 568.840 163.550, 568.500 163 C 568.160 162.450, 567.657 162, 567.382 162 C 567.107 162, 567.160 162.450, 567.500 163 M 467.333 163.667 C 467.700 164.033, 468.300 164.033, 468.667 163.667 C 469.033 163.300, 468.733 163, 468 163 C 467.267 163, 466.967 163.300, 467.333 163.667" stroke="none" fill="#ffffff" fill-rule="evenodd"/>
</svg>
