<?xml version="1.0" encoding="UTF-8"?>
<svg xmlns="http://www.w3.org/2000/svg" width="105" height="108" viewBox="0 0 105 108" role="img" aria-label="Vygo">

<path data-layer="dark-bg" d="M 13.211 4.129 C 8.754 5.414, 2.366 12.021, 1.071 16.685 C 0.419 19.030, 0.009 33.808, 0.006 55.038 C 0 88.889, 0.045 89.664, 2.250 93.980 C 3.488 96.402, 6.229 99.760, 8.343 101.442 L 12.186 104.500 50.343 104.500 L 88.500 104.500 92.748 101.500 C 95.203 99.766, 97.946 96.601, 99.248 94 C 101.457 89.585, 101.500 88.828, 101.500 54 C 101.500 19.307, 101.450 18.406, 99.294 14.376 C 96.538 9.224, 92.053 5.387, 87.219 4.044 C 82.519 2.739, 17.774 2.813, 13.211 4.129 M 22.443 29.936 L 14.386 30.500 26.031 54.321 L 37.677 78.142 39.471 75.321 C 40.457 73.769, 43.054 70.145, 45.241 67.267 L 49.217 62.034 42.006 46.767 C 35.533 33.062, 32.765 28.617, 31.059 29.186 C 30.751 29.289, 26.874 29.626, 22.443 29.936 M 63.430 41.250 C 59.775 47.438, 55.924 53.919, 54.870 55.654 L 52.956 58.808 60.728 54.848 C 65.344 52.496, 71.211 50.427, 75.177 49.754 L 81.853 48.619 85.677 40.140 C 87.780 35.477, 89.650 31.288, 89.833 30.831 C 90.017 30.374, 85.646 30, 80.120 30 L 70.074 30 63.430 41.250 M 75 52.715 C 70.090 53.584, 58.200 60.015, 53.215 64.497 C 48.389 68.836, 40.998 79.245, 38.986 84.537 C 38.065 86.960, 38.135 87, 43.275 86.997 L 48.500 86.995 52 80.247 C 54.514 75.400, 56.124 73.411, 57.717 73.185 C 59.913 72.873, 59.906 72.932, 56.967 79.413 C 55.335 83.012, 54 86.191, 54 86.478 C 54 86.765, 56.362 86.998, 59.250 86.996 L 64.500 86.993 66.414 82.246 C 67.467 79.636, 70.698 72.438, 73.595 66.250 C 76.491 60.063, 78.555 55.011, 78.181 55.025 C 76.220 55.096, 67.500 62.692, 64.358 67.065 C 60.973 71.777, 59.094 72.781, 58.273 70.318 C 57.759 68.776, 70.978 56.879, 76.111 54.264 C 80.379 52.089, 80.171 51.799, 75 52.715" stroke="none" fill="#02121f" fill-rule="evenodd"/>
<path data-layer="cyan" d="M 22.443 29.936 L 14.386 30.500 26.031 54.321 L 37.677 78.142 39.471 75.321 C 40.457 73.769, 43.054 70.145, 45.241 67.267 L 49.217 62.034 42.006 46.767 C 35.533 33.062, 32.765 28.617, 31.059 29.186 C 30.751 29.289, 26.874 29.626, 22.443 29.936 M 63.430 41.250 C 59.775 47.438, 55.924 53.919, 54.870 55.654 L 52.956 58.808 60.728 54.848 C 65.344 52.496, 71.211 50.427, 75.177 49.754 L 81.853 48.619 85.677 40.140 C 87.780 35.477, 89.650 31.288, 89.833 30.831 C 90.017 30.374, 85.646 30, 80.120 30 L 70.074 30 63.430 41.250" stroke="none" fill="#12c6df" fill-rule="evenodd"/>
<path data-layer="white" d="M 75 52.715 C 70.090 53.584, 58.200 60.015, 53.215 64.497 C 48.389 68.836, 40.998 79.245, 38.986 84.537 C 38.065 86.960, 38.135 87, 43.275 86.997 L 48.500 86.995 52 80.247 C 54.514 75.400, 56.124 73.411, 57.717 73.185 C 59.913 72.873, 59.906 72.932, 56.967 79.413 C 55.335 83.012, 54 86.191, 54 86.478 C 54 86.765, 56.362 86.998, 59.250 86.996 L 64.500 86.993 66.414 82.246 C 67.467 79.636, 70.698 72.438, 73.595 66.250 C 76.491 60.063, 78.555 55.011, 78.181 55.025 C 76.220 55.096, 67.500 62.692, 64.358 67.065 C 60.973 71.777, 59.094 72.781, 58.273 70.318 C 57.759 68.776, 70.978 56.879, 76.111 54.264 C 80.379 52.089, 80.171 51.799, 75 52.715" stroke="none" fill="#ffffff" fill-rule="evenodd"/>
<path data-layer="dark-detail" d="" stroke="none" fill="#02121f" fill-rule="evenodd"/>
</svg>
